<svg xmlns="http://www.w3.org/2000/svg" xmlns:xlink="http://www.w3.org/1999/xlink" width="2000" zoomAndPan="magnify" viewBox="0 0 1500 1499.999933" height="2000" preserveAspectRatio="xMidYMid meet" version="1.0"><defs><g/></defs><path fill="#9dc02e" d="M 997.0625 432.292969 C 992.480469 438.113281 984.054688 439.148438 978.164062 434.613281 C 972.328125 430.039062 971.246094 421.597656 975.820312 415.734375 C 983.480469 406.027344 994.273438 395.65625 1007.511719 385.351562 C 1015.347656 336.496094 1032.777344 299.902344 1055.984375 273.867188 C 1080.84375 245.976562 1112.238281 230.28125 1145.699219 224.757812 C 1178.6875 219.246094 1213.574219 223.679688 1246.003906 236.019531 C 1289.582031 252.542969 1329.027344 283.417969 1353.902344 323.664062 L 1364.449219 340.664062 L 1344.640625 343.902344 C 1313.304688 349.0625 1286.671875 373.019531 1259.386719 397.476562 C 1199.773438 451.054688 1137.621094 506.851562 1011.847656 416.691406 C 1005.929688 422.019531 1001.019531 427.257812 997.0625 432.292969 Z M 1039.660156 363.425781 C 1056.804688 353.085938 1076.101562 343.324219 1096.796875 334.875 C 1141.804688 316.445312 1193.878906 303.917969 1245.359375 304.808594 C 1252.855469 304.917969 1258.742188 311.0625 1258.609375 318.46875 C 1258.460938 325.882812 1252.300781 331.792969 1244.867188 331.648438 C 1197.429688 330.832031 1149.042969 342.5625 1107.027344 359.714844 C 1078.863281 371.242188 1053.726562 385.105469 1033.789062 399.207031 C 1137.800781 470.460938 1190.667969 423.046875 1241.359375 377.488281 C 1266.269531 355.164062 1290.703125 333.265625 1320.417969 322.605469 C 1298.871094 294.835938 1268.984375 273.480469 1236.429688 261.140625 C 1208.273438 250.410156 1178.269531 246.503906 1150.207031 251.171875 C 1122.628906 255.765625 1096.707031 268.714844 1076.214844 291.734375 C 1060.421875 309.394531 1047.757812 333.027344 1039.660156 363.425781 Z M 1039.660156 363.425781 " fill-opacity="1" fill-rule="evenodd"/><path fill="#9dc02e" d="M 1331.078125 407.605469 C 1328.230469 400.765625 1331.585938 392.917969 1338.527344 390.136719 C 1345.371094 387.394531 1353.269531 390.691406 1356.066406 397.570312 C 1360.671875 409.003906 1364.289062 423.511719 1366.628906 440.085938 C 1405.171875 471.238281 1428.351562 504.605469 1439.382812 537.664062 C 1451.15625 573.027344 1449.125 607.9375 1437.230469 639.578125 C 1425.515625 670.792969 1404.234375 698.65625 1377.289062 720.46875 C 1341.089844 749.75 1294.558594 768.34375 1247.070312 769.714844 L 1227.023438 770.269531 L 1234.128906 751.546875 C 1245.339844 721.996094 1237.8125 687.039062 1230.152344 651.25 C 1213.386719 573.027344 1195.90625 491.546875 1337.25 428.136719 C 1335.496094 420.460938 1333.464844 413.539062 1331.078125 407.605469 Z M 1369.652344 478.800781 C 1370.070312 498.742188 1368.886719 520.292969 1365.933594 542.394531 C 1359.433594 590.367188 1344.28125 641.554688 1317.765625 685.480469 C 1313.945312 691.863281 1305.644531 693.902344 1299.265625 690.066406 C 1292.890625 686.277344 1290.820312 678.03125 1294.667969 671.691406 C 1319.09375 631.125 1333.105469 583.570312 1339.144531 538.75 C 1343.238281 508.671875 1343.777344 480.082031 1341.464844 455.816406 C 1227.449219 509.910156 1242.285156 579.199219 1256.582031 645.726562 C 1263.511719 678.3125 1270.417969 710.394531 1264.738281 741.363281 C 1299.660156 736.617188 1333.199219 721.480469 1360.234375 699.648438 C 1383.640625 680.691406 1402.027344 656.785156 1411.984375 630.25 C 1421.808594 604.132812 1423.453125 575.351562 1413.734375 546.140625 C 1406.261719 523.742188 1392.058594 500.96875 1369.652344 478.800781 Z M 1369.652344 478.800781 " fill-opacity="1" fill-rule="evenodd"/><path fill="#9dc02e" d="M 1185.488281 707.996094 C 1192.84375 709.023438 1198.023438 715.8125 1197 723.140625 C 1195.910156 730.457031 1189.128906 735.582031 1181.769531 734.589844 C 1169.476562 732.851562 1155.09375 728.75 1139.4375 722.445312 C 1093.089844 740.125 1052.535156 743.421875 1018.289062 736.394531 C 981.601562 728.886719 952.277344 709.65625 930.722656 683.597656 C 909.4375 657.851562 895.847656 625.574219 890.328125 591.4375 C 882.949219 545.597656 890.078125 496.121094 912.609375 454.5625 L 922.152344 436.996094 L 934.871094 452.445312 C 954.988281 476.84375 989.144531 487.894531 1024.113281 499.175781 C 1100.476562 523.785156 1180.066406 549.488281 1164.566406 703.082031 C 1172.171875 705.429688 1179.15625 707.117188 1185.488281 707.996094 Z M 1104.300781 705.691406 C 1086.746094 696.082031 1068.644531 684.3125 1050.882812 670.710938 C 1012.386719 641.058594 975.492188 602.464844 950.503906 557.582031 C 946.867188 551.109375 949.265625 542.957031 955.769531 539.335938 C 962.257812 535.734375 970.511719 538.109375 974.109375 544.589844 C 997.089844 585.957031 1031.46875 621.769531 1067.429688 649.4375 C 1091.523438 667.988281 1116.140625 682.753906 1138.386719 692.898438 C 1148.3125 567.554688 1080.6875 545.675781 1015.710938 524.691406 C 983.832031 514.417969 952.535156 504.300781 928.445312 483.9375 C 915.089844 516.425781 911.460938 552.902344 917.003906 587.132812 C 921.757812 616.792969 933.347656 644.597656 951.453125 666.488281 C 969.238281 688.003906 993.4375 703.820312 1023.675781 710.054688 C 1046.949219 714.792969 1073.871094 713.921875 1104.300781 705.691406 Z M 1104.300781 705.691406 " fill-opacity="1" fill-rule="evenodd"/><g fill="#000000" fill-opacity="1"><g transform="translate(50.469778, 800.323763)"><g><path d="M 15.484375 -350.046875 L 123.0625 -350.046875 C 140.175781 -350.046875 153.421875 -346.171875 162.796875 -338.421875 C 172.171875 -330.679688 178.488281 -319.816406 181.75 -305.828125 C 185.007812 -291.835938 186.640625 -273.976562 186.640625 -252.25 C 186.640625 -232.414062 184.054688 -216.925781 178.890625 -205.78125 C 173.734375 -194.644531 164.769531 -186.90625 152 -182.5625 C 162.59375 -180.382812 170.265625 -175.082031 175.015625 -166.65625 C 179.773438 -158.238281 182.15625 -146.832031 182.15625 -132.4375 L 181.34375 0 L 112.875 0 L 112.875 -136.921875 C 112.875 -146.703125 110.972656 -152.945312 107.171875 -155.65625 C 103.367188 -158.375 96.441406 -159.734375 86.390625 -159.734375 L 86.390625 0 L 15.484375 0 Z M 103.5 -220.453125 C 113.28125 -220.453125 118.171875 -231.050781 118.171875 -252.25 C 118.171875 -261.476562 117.765625 -268.398438 116.953125 -273.015625 C 116.140625 -277.640625 114.644531 -280.832031 112.46875 -282.59375 C 110.289062 -284.363281 107.164062 -285.25 103.09375 -285.25 L 86.796875 -285.25 L 86.796875 -220.453125 Z M 103.5 -220.453125 "/></g></g></g><g fill="#000000" fill-opacity="1"><g transform="translate(244.819809, 800.323763)"><g><path d="M 97.796875 3.265625 C 67.097656 3.265625 45.09375 -5.15625 31.78125 -22 C 18.46875 -38.84375 11.8125 -63.972656 11.8125 -97.390625 L 11.8125 -217.203125 C 11.8125 -244.640625 19.691406 -265.554688 35.453125 -279.953125 C 51.210938 -294.347656 73.21875 -301.546875 101.46875 -301.546875 C 158.789062 -301.546875 187.453125 -273.429688 187.453125 -217.203125 L 187.453125 -195.59375 C 187.453125 -173.863281 187.179688 -156.207031 186.640625 -142.625 L 83.125 -142.625 L 83.125 -84.765625 C 83.125 -74.441406 84.210938 -66.359375 86.390625 -60.515625 C 88.566406 -54.671875 93.1875 -51.75 100.25 -51.75 C 105.675781 -51.75 109.546875 -53.378906 111.859375 -56.640625 C 114.171875 -59.898438 115.53125 -63.632812 115.9375 -67.84375 C 116.34375 -72.0625 116.546875 -78.242188 116.546875 -86.390625 L 116.546875 -115.328125 L 187.453125 -115.328125 L 187.453125 -98.203125 C 187.453125 -63.429688 180.726562 -37.828125 167.28125 -21.390625 C 153.832031 -4.953125 130.671875 3.265625 97.796875 3.265625 Z M 116.546875 -178.078125 L 116.546875 -216.375 C 116.546875 -237.84375 111.25 -248.578125 100.65625 -248.578125 C 88.695312 -248.578125 82.71875 -237.84375 82.71875 -216.375 L 82.71875 -178.078125 Z M 116.546875 -178.078125 "/></g></g></g><g fill="#000000" fill-opacity="1"><g transform="translate(443.65167, 800.323763)"><g><path d="M 103.90625 3.265625 C 71.3125 3.265625 47.8125 -5.019531 33.40625 -21.59375 C 19.007812 -38.164062 11.8125 -63.566406 11.8125 -97.796875 L 11.8125 -189.890625 C 11.8125 -215.703125 14.597656 -236.6875 20.171875 -252.84375 C 25.742188 -269.007812 35.113281 -281.164062 48.28125 -289.3125 C 61.457031 -297.46875 79.726562 -301.546875 103.09375 -301.546875 C 128.632812 -301.546875 149.414062 -294.890625 165.4375 -281.578125 C 181.46875 -268.265625 189.484375 -249.65625 189.484375 -225.75 L 189.484375 -180.109375 L 116.953125 -180.109375 L 116.953125 -222.09375 C 116.953125 -229.96875 115.863281 -236.007812 113.6875 -240.21875 C 111.519531 -244.425781 107.3125 -246.53125 101.0625 -246.53125 C 89.375 -246.53125 83.53125 -238.25 83.53125 -221.6875 L 83.53125 -77.015625 C 83.53125 -70.222656 84.957031 -64.445312 87.8125 -59.6875 C 90.664062 -54.9375 94.945312 -52.5625 100.65625 -52.5625 C 106.351562 -52.5625 110.628906 -54.867188 113.484375 -59.484375 C 116.335938 -64.109375 117.628906 -70.085938 117.359375 -77.421875 L 116.953125 -127.546875 L 189.484375 -127.546875 L 189.484375 -75.390625 C 189.484375 -50.941406 181.535156 -31.71875 165.640625 -17.71875 C 149.753906 -3.726562 129.175781 3.265625 103.90625 3.265625 Z M 103.90625 3.265625 "/></g></g></g><g fill="#000000" fill-opacity="1"><g transform="translate(643.705896, 800.323763)"><g><path d="M 8.5625 4.484375 L 42.78125 4.484375 C 47.675781 4.484375 50.125 2.445312 50.125 -1.625 C 50.125 -3.53125 49.988281 -5.023438 49.71875 -6.109375 L 3.265625 -298.296875 L 71.3125 -298.296875 L 84.765625 -152.8125 L 91.28125 -78.640625 L 99.015625 -152.8125 L 114.921875 -298.296875 L 183.375 -298.296875 L 127.953125 15.484375 C 126.054688 27.160156 122.1875 35.785156 116.34375 41.359375 C 110.5 46.929688 101.328125 49.71875 88.828125 49.71875 L 8.5625 49.71875 Z M 8.5625 4.484375 "/></g></g></g><g fill="#000000" fill-opacity="1"><g transform="translate(790.821757, 1199.864439)"><g><path d="M 6.109375 0 L 39.9375 -350.046875 L 158.515625 -350.046875 L 191.9375 0 L 125.515625 0 L 120.625 -56.640625 L 78.234375 -56.640625 L 74.171875 0 Z M 83.53125 -112.46875 L 115.328125 -112.46875 L 99.84375 -290.546875 L 96.578125 -290.546875 Z M 83.53125 -112.46875 "/></g></g></g><g fill="#000000" fill-opacity="1"><g transform="translate(988.431329, 1199.864439)"><g><path d="M 14.265625 -298.296875 L 86.796875 -298.296875 L 86.796875 -282.390625 C 97.117188 -295.160156 111.378906 -301.546875 129.578125 -301.546875 C 152.671875 -301.546875 168.769531 -293.800781 177.875 -278.3125 C 186.976562 -262.832031 191.53125 -241.375 191.53125 -213.9375 L 191.53125 -103.5 C 191.53125 -80.132812 190.171875 -61.050781 187.453125 -46.25 C 184.734375 -31.445312 178.753906 -19.492188 169.515625 -10.390625 C 160.285156 -1.285156 146.296875 3.265625 127.546875 3.265625 C 109.617188 3.265625 96.035156 -1.757812 86.796875 -11.8125 L 86.796875 59.5 L 14.265625 59.5 Z M 103.90625 -52.15625 C 110.425781 -52.15625 114.632812 -55.144531 116.53125 -61.125 C 118.4375 -67.101562 119.390625 -75.796875 119.390625 -87.203125 L 119.390625 -213.9375 C 119.390625 -224.257812 118.4375 -232.132812 116.53125 -237.5625 C 114.632812 -243 110.289062 -245.71875 103.5 -245.71875 C 92.363281 -245.71875 86.796875 -235.394531 86.796875 -214.75 L 86.796875 -83.9375 C 86.796875 -73.894531 87.945312 -66.085938 90.25 -60.515625 C 92.5625 -54.941406 97.113281 -52.15625 103.90625 -52.15625 Z M 103.90625 -52.15625 "/></g></g></g><g fill="#000000" fill-opacity="1"><g transform="translate(1192.152498, 1199.864439)"><g><path d="M 14.265625 -298.296875 L 86.796875 -298.296875 L 86.796875 -282.390625 C 97.117188 -295.160156 111.378906 -301.546875 129.578125 -301.546875 C 152.671875 -301.546875 168.769531 -293.800781 177.875 -278.3125 C 186.976562 -262.832031 191.53125 -241.375 191.53125 -213.9375 L 191.53125 -103.5 C 191.53125 -80.132812 190.171875 -61.050781 187.453125 -46.25 C 184.734375 -31.445312 178.753906 -19.492188 169.515625 -10.390625 C 160.285156 -1.285156 146.296875 3.265625 127.546875 3.265625 C 109.617188 3.265625 96.035156 -1.757812 86.796875 -11.8125 L 86.796875 59.5 L 14.265625 59.5 Z M 103.90625 -52.15625 C 110.425781 -52.15625 114.632812 -55.144531 116.53125 -61.125 C 118.4375 -67.101562 119.390625 -75.796875 119.390625 -87.203125 L 119.390625 -213.9375 C 119.390625 -224.257812 118.4375 -232.132812 116.53125 -237.5625 C 114.632812 -243 110.289062 -245.71875 103.5 -245.71875 C 92.363281 -245.71875 86.796875 -235.394531 86.796875 -214.75 L 86.796875 -83.9375 C 86.796875 -73.894531 87.945312 -66.085938 90.25 -60.515625 C 92.5625 -54.941406 97.113281 -52.15625 103.90625 -52.15625 Z M 103.90625 -52.15625 "/></g></g></g></svg>